<?xml version="1.0" encoding="utf-8"?>
<svg version="1.1" id="Layer_1"
    xmlns="http://www.w3.org/2000/svg"
    xmlns:xlink="http://www.w3.org/1999/xlink" x="0px" y="0px" viewBox="0 0 122.88 109.14" style="enable-background:new 0 0 122.88 109.14" xml:space="preserve">
    <style type="text/css">.st0{fill-rule:evenodd;clip-rule:evenodd;}</style>
    <g>
        <polygon fill="#ffffff" class="st0" points="0,70.16 21.75,84.72 6.56,42.05 29.34,64.41 26.46,12.31 54.57,53.75 57.23,27.28 65.44,50.26 79.8,0 80.83,56.62 93.54,42.05 91.9,61.95 122.88,32.21 102.16,93.54 122.47,86.57 109.14,109.14 86.87,109.14 91.29,84.9 74.91,100.7 72.4,83.16 69.3,92.87 63.49,82.1 62.32,93.57 48.72,76.59 48.97,102.36 37.13,92.65 38.56,109.14 18.5,109.14 0,70.16"/>
    </g>
</svg>